<svg width="91" height="94" viewBox="0 0 91 94" fill="none" xmlns="http://www.w3.org/2000/svg">
<g clip-path="url(#clip0_304_86)">
<mask id="mask0_304_86" style="mask-type:luminance" maskUnits="userSpaceOnUse" x="0" y="0" width="91" height="94">
<path d="M90.5 0.5H0.5V93.5H90.5V0.5Z" fill="white"/>
</mask>
<g mask="url(#mask0_304_86)">
<path d="M51.6012 66.0265C63.3307 102.44 27.6661 102.44 39.3956 66.0265C27.6661 81.9872 11.5365 65.4059 27.0667 53.3524C-8.35556 65.4103 -8.35556 28.7471 27.0667 40.805C11.5408 28.7471 27.6704 12.1702 39.3956 28.1309C27.6661 -8.28321 63.3307 -8.28321 51.6012 28.1309C63.3307 12.1702 79.4561 28.7471 63.9301 40.805C99.3566 28.7471 99.3566 65.4103 63.9301 53.3524C79.4561 65.4059 63.3307 81.9872 51.6012 66.0265Z" fill="white"/>
</g>
</g>
<defs>
<clipPath id="clip0_304_86">
<rect width="90" height="93" fill="white" transform="translate(0.5 0.5)"/>
</clipPath>
</defs>
</svg>
