<svg width="45" height="47" viewBox="0 0 45 47" fill="none" xmlns="http://www.w3.org/2000/svg">
<g clip-path="url(#clip0_304_92)">
<mask id="mask0_304_92" style="mask-type:luminance" maskUnits="userSpaceOnUse" x="0" y="0" width="45" height="47">
<path d="M44.5 0.5H0.5V46.5H44.5V0.5Z" fill="white"/>
</mask>
<g mask="url(#mask0_304_92)">
<path d="M29.7842 46.3554H15.2158C15.2172 44.3684 14.8376 42.4006 14.0986 40.5645C13.3597 38.7284 12.2759 37.0599 10.9093 35.6544C9.5427 34.2489 7.91997 33.1339 6.13389 32.3732C4.34781 31.6125 2.43338 31.221 0.5 31.221V16.2488C4.40288 16.2488 8.14591 14.6554 10.9057 11.8191C13.6654 8.98287 15.2158 5.13608 15.2158 1.125H29.7842C29.7842 5.13608 31.3346 8.98287 34.0943 11.8191C36.8541 14.6554 40.5971 16.2488 44.5 16.2488V31.221C42.5666 31.221 40.6522 31.6125 38.8661 32.3732C37.08 33.1339 35.4573 34.2489 34.0907 35.6544C32.7241 37.0599 31.6403 38.7284 30.9014 40.5645C30.1624 42.4006 29.7828 44.3684 29.7842 46.3554Z" fill="white"/>
</g>
</g>
<defs>
<clipPath id="clip0_304_92">
<rect width="44" height="46" fill="white" transform="translate(0.5 0.5)"/>
</clipPath>
</defs>
</svg>
